<svg width="283" height="94" viewBox="0 0 283 94" xmlns="http://www.w3.org/2000/svg">
  <g fill="none" fill-rule="evenodd">
    <path
      d="M21.025 44.4c-.8-.1-1.5-.3-2.2-.6-1.5-.6-2.6-1.7-3.3-3.1-.1-.2-.2-.4-.2-.5-.7-1.6-1.4-3.2-2.1-4.9-.3-.8-.6-1.6-1-2.3-.7-1.6-1.3-3.2-2-4.8-3.3-7.9-6.5-15.7-9.7-23.4-.2-.5-.4-1.1-.5-1.6-.1-.8.1-1.6.7-2.2.7-.8 2.2-1 3.2-1h16c1 0 2.1 0 3.2.2 2.4.6 4 2 4.9 4.1 1.1 2.8 2.3 5.5 3.4 8.3.4 1 .9 2.1 1.3 3.1.8 1.9 1.6 3.7 2.4 5.6.8 2.1 1.7 4.1 2.5 6.2 1.7 4 3.3 8.1 5 12.1.2.5.4 1 .5 1.5.2 1-.3 2.1-1.2 2.7-1.1.7-2.6.5-3.8.5h-13.8c-1.1.2-2.2.2-3.3.1z"
      fill="#F3C93C" />
    <path
      d="M183.625 2.6H162.225c-.7.1-.9.4-1 .6-.1.2-.2.6-.2 1v4c0 .2 0 .5-.1.7-.2.8-.8 1.4-1.6 1.4-.4 0-.8-.1-1.1-.4-.2-.1-.3-.3-.4-.4l-.1-.1c-1.8-1.8-3.9-3.5-6.2-4.8-4.6-2.7-9.8-4.2-15.7-4.5-.7 0-1.5-.1-2.2-.1-4 0-8 .6-11.9 1.8-8 2.4-15 6.9-20.6 13.5-6.6 7.7-10.4 17.2-11.3 28-.3 4.1-.1 8.3.7 12.4 1.7 8.9 5.5 16.7 11.3 23.2 4.2 4.8 9.2 8.4 14.7 10.9 5.7 2.5 11.4 3.8 17.1 3.8 2.9 0 5.8-.3 8.6-1 6.1-1.4 11.4-4.4 15.7-9l.1-.1.4-.4c.3-.2.7-.4 1-.4.8 0 1.4.5 1.6 1.3.1.3.1.6.1.9v4.9c0 .9.5 1.4 1.5 1.4h21.3c.7-.1 1.1-.4 1.2-1.1.1-.3.1-.5.1-.9V3.8c-.2-.7-.7-1.2-1.6-1.2zm-47.5 68.2c-13.3 0-24-10.7-24-24s10.7-24 24-24 24 10.7 24 24-10.8 24-24 24zm143.5 1-.5-.5-8.6-7.8c-1.3-1.2-2.7-2.4-4-3.7-.5-.5-1.2-.7-1.9-.7-.9 0-1.7.4-2.2 1.1l-.9 1.2c-1.6 2.2-3.3 4-5.3 5.4-3.9 2.8-8.3 4.3-13 4.3-.8 0-1.5 0-2.3-.1-5.7-.5-10.6-2.9-14.3-7.1-5.5-6-7.6-13.2-6.3-21.4 1.2-7.1 4.8-12.7 10.8-16.5 3.7-2.4 7.6-3.6 11.8-3.6 1.6 0 3.2.2 4.8.5 4.3.9 8.2 3.1 11.5 6.5.9.9 1.7 1.9 2.4 2.8l.4.5c.6.7 1.4 1.2 2.3 1.2.7 0 1.4-.3 1.9-.8l12.6-11.7c1.2-1.2 1.3-2.8.2-4.1-.2-.2-.4-.4-.6-.7-.2-.2-.4-.4-.5-.6-4.1-4.6-8.9-8.4-14.3-11.2-5-2.6-10.4-4.2-16-4.7-1.6 0-3.2-.1-4.7-.1-2.4 0-4.8.2-7.2.6-5 .8-9.4 2.3-13.4 4.4-9.7 5.1-16.9 12.6-21.4 22.4-2.7 5.8-4.1 12-4.2 18.7-.1 2.9.2 5.8.7 8.7.8 4.8 2.3 9.3 4.4 13.4 2.4 4.7 5.6 8.9 9.5 12.6 8.9 8.4 19.5 12.7 32.4 12.9.4 0 .8-.1 1.2-.1 1.1-.1 2.6-.2 4-.3 4.1-.5 8.3-1.6 12.2-3.3 7.2-3.1 13.5-8 18.7-14.6.3-.4.4-.7.4-1.1v-1.1c0-.5-.2-.9-.6-1.4zM85.125 0h-15.7c-1.1 0-2.2 0-3.3.2-2.4.6-4 2-4.9 4.1-2.7 6.7-5.5 13.3-8.2 19.9l-4 9.8c-4.6 11-8 19.4-11.5 27.9-3.3 8.1-6.7 16.4-11.1 27.1-.1.4-.3.8-.4 1.2-.2.8-.1 1.6.3 2.3.5.9 1.4 1.2 2.3 1.3.4 0 .8.1 1.1.1h16.7c3.2 0 6.2-1.3 7.5-4.4.5-1.3 1.1-2.6 1.6-3.9l.9-2.1c6.3-15.5 11.5-28.1 16.7-40.9 4.9-11.8 9.7-23.6 15.6-37.8.2-.5.4-1 .5-1.5.2-1-.2-2-1-2.6-1-.7-2.1-.7-3.1-.7z"
      fill="currentColor" />
  </g>
</svg>